<?xml version="1.0" encoding="utf-8"?>
<svg width="181.7" height="50" viewBox="40 34 181.7 50" fill="none" xmlns="http://www.w3.org/2000/svg">
  <path d="M43.1229 67.1939C42.0675 67.1933 41.0526 66.7877 40.2876 66.0606C39.5226 65.3336 39.0658 64.3407 39.0115 63.2867V75.4397C38.9997 75.9873 39.0973 76.5317 39.2986 77.041C39.5 77.5503 39.801 78.0142 40.184 78.4057C40.5671 78.7971 41.0244 79.1081 41.5292 79.3204C42.0341 79.5327 42.5762 79.6421 43.1239 79.6421C43.6715 79.6421 44.2137 79.5327 44.7185 79.3204C45.2233 79.1081 45.6807 78.7971 46.0637 78.4057C46.4467 78.0142 46.7478 77.5503 46.9491 77.041C47.1504 76.5317 47.2481 75.9873 47.2362 75.4397V63.2848C47.1814 64.3391 46.7243 65.3323 45.959 66.0595C45.1938 66.7868 44.1786 67.1928 43.1229 67.1939Z" fill="#00C49A" />
  <path d="M43.1229 67.1938C45.4 67.1938 47.2459 65.3479 47.2459 63.0709C47.2459 60.7939 45.4 58.948 43.1229 58.948C40.8459 58.948 39 60.7939 39 63.0709C39 65.3479 40.8459 67.1938 43.1229 67.1938Z" fill="#7FE1CC" />
  <path d="M78.478 46.6312C77.7363 46.6331 77.0078 46.4346 76.3695 46.0568C75.7312 45.6789 75.2068 45.1357 74.8516 44.4846C74.4964 43.8334 74.3237 43.0984 74.3516 42.3572C74.3795 41.616 74.607 40.896 75.0102 40.2734L60.7957 60.1174L63.9688 64.5486C64.518 65.2095 64.8469 66.0256 64.9094 66.8827C64.972 67.7397 64.765 68.5949 64.3175 69.3285L74.3609 55.299V75.2201C74.412 74.1639 74.8676 73.1678 75.6332 72.4384C76.3988 71.7089 77.4158 71.302 78.4732 71.302C79.5307 71.302 80.5476 71.7089 81.3132 72.4384C82.0788 73.1678 82.5344 74.1639 82.5856 75.2201V42.7221C82.5318 43.7758 82.0757 44.7686 81.3115 45.4959C80.5473 46.2233 79.5331 46.6296 78.478 46.6312Z" fill="#00B6AB" />
  <path d="M60.7996 63.0709C61.4059 63.0703 62.005 63.2037 62.5538 63.4615C63.1027 63.7193 63.5878 64.0951 63.9746 64.5621L60.8015 60.1309L46.4675 40.1077C46.1532 39.6686 45.7554 39.2958 45.2969 39.0104C44.8385 38.725 44.3283 38.5328 43.7955 38.4446C43.2628 38.3564 42.7178 38.374 42.1919 38.4964C41.6659 38.6188 41.1692 38.8436 40.7301 39.1579C40.291 39.4723 39.9181 39.87 39.6328 40.3285C39.3474 40.787 39.1551 41.2971 39.0669 41.8299C38.9787 42.3627 38.9963 42.9076 39.1187 43.4336C39.2411 43.9595 39.4659 44.4563 39.7803 44.8953L57.2796 69.3401C57.3028 69.3786 57.3278 69.4153 57.3529 69.4519C56.9446 68.8304 56.7121 68.1101 56.6801 67.3672C56.6481 66.6243 56.8178 65.8866 57.1712 65.2324C57.5246 64.5782 58.0485 64.0318 58.6873 63.6513C59.3261 63.2707 60.056 63.0702 60.7996 63.0709Z" fill="#00C49A" />
  <path d="M168.233 43.5756C164.434 40.1828 159.272 38.3853 153.309 38.3853H140.979C142.054 38.4086 143.078 38.8521 143.83 39.6208C144.582 40.3894 145.003 41.4222 145.003 42.4977C145.003 43.5732 144.582 44.6059 143.83 45.3746C143.078 46.1432 142.054 46.5867 140.979 46.61H153.309C157.22 46.61 160.488 47.6812 162.75 49.708C165.143 51.8407 166.349 54.9638 166.349 59C166.349 63.0362 165.137 66.1284 162.746 68.2477C160.473 70.2629 157.209 71.3303 153.306 71.3303H145.1V75.0062V75.0159C145.114 75.1527 145.121 75.2894 145.121 75.4301C145.121 76.5237 144.687 77.5726 143.914 78.3461C143.141 79.1196 142.092 79.5544 140.998 79.5549H153.309C159.255 79.5549 164.407 77.7728 168.206 74.4013C172.375 70.7041 174.577 65.3771 174.577 58.9884C174.577 52.5998 172.385 47.2785 168.233 43.5756Z" fill="#0099CE" />
  <path d="M145.1 75.0043V54.8713C145.077 53.796 144.633 52.7727 143.864 52.0204C143.096 51.2682 142.063 50.847 140.988 50.847C139.912 50.847 138.879 51.2682 138.111 52.0204C137.342 52.7727 136.899 53.796 136.875 54.8713V75.4282C136.874 74.3703 137.279 73.3523 138.007 72.5847C138.734 71.8171 139.73 71.3587 140.786 71.3043C141.842 71.2498 142.879 71.6035 143.682 72.2922C144.485 72.9809 144.993 73.9519 145.1 75.0043Z" fill="#00A7BD" />
  <path d="M196.057 75.8771C196.057 74.7836 196.491 73.7349 197.265 72.9617C198.038 72.1885 199.086 71.7541 200.18 71.7541C197.656 71.7482 195.19 70.9949 193.093 69.5893C190.997 68.1836 189.363 66.1885 188.399 63.8556C187.435 61.5228 187.184 58.9567 187.676 56.481C188.169 54.0054 189.384 51.731 191.167 49.9449C191.934 49.168 192.36 48.1184 192.353 47.0271C192.345 45.9358 191.905 44.8921 191.128 44.1256C190.351 43.3592 189.301 42.9328 188.21 42.9402C187.119 42.9476 186.075 43.3882 185.308 44.1651C182.411 47.0771 180.432 50.7747 179.615 54.8004C178.798 58.826 179.18 63.0029 180.713 66.8138C182.246 70.6247 184.862 73.9024 188.239 76.241C191.616 78.5796 195.605 79.8765 199.712 79.9711H199.729C198.721 79.8597 197.789 79.3806 197.111 78.6253C196.434 77.8701 196.058 76.8916 196.057 75.8771Z" fill="#0099CE" />
  <path d="M200.18 46.2459C202.457 46.2459 204.303 44.4 204.303 42.1229C204.303 39.8459 202.457 38 200.18 38C197.903 38 196.057 39.8459 196.057 42.1229C196.057 44.4 197.903 46.2459 200.18 46.2459Z" fill="#7FC4EF" />
  <path d="M60.7996 71.3168C63.0766 71.3168 64.9225 69.4709 64.9225 67.1939C64.9225 64.9168 63.0766 63.0709 60.7996 63.0709C58.5225 63.0709 56.6766 64.9168 56.6766 67.1939C56.6766 69.4709 58.5225 71.3168 60.7996 71.3168Z" fill="#7FE1CC" />
  <path d="M78.4781 79.5569C80.7551 79.5569 82.601 77.711 82.601 75.4339C82.601 73.1569 80.7551 71.311 78.4781 71.311C76.2011 71.311 74.3552 73.1569 74.3552 75.4339C74.3552 77.711 76.2011 79.5569 78.4781 79.5569Z" fill="#7FDAD5" />
  <path d="M78.4781 46.6312C80.7551 46.6312 82.601 44.7853 82.601 42.5083C82.601 40.2312 80.7551 38.3853 78.4781 38.3853C76.2011 38.3853 74.3552 40.2312 74.3552 42.5083C74.3552 44.7853 76.2011 46.6312 78.4781 46.6312Z" fill="#7FDAD5" />
  <path d="M140.998 79.5511C143.275 79.5511 145.121 77.7052 145.121 75.4281C145.121 73.1511 143.275 71.3052 140.998 71.3052C138.721 71.3052 136.875 73.1511 136.875 75.4281C136.875 77.7052 138.721 79.5511 140.998 79.5511Z" fill="#7FD3DE" />
  <path d="M140.989 46.6138C143.259 46.6138 145.1 44.7731 145.1 42.5025C145.1 40.2318 143.259 38.3911 140.989 38.3911C138.718 38.3911 136.877 40.2318 136.877 42.5025C136.877 44.7731 138.718 46.6138 140.989 46.6138Z" fill="#7FCCE6" />
  <path d="M200.575 38.0173C201.607 38.1179 202.563 38.6037 203.252 39.3778C203.942 40.152 204.314 41.1577 204.295 42.1943C204.276 43.2309 203.867 44.2223 203.15 44.9707C202.433 45.7191 201.459 46.1696 200.424 46.2324C203.775 46.3127 206.96 47.7082 209.29 50.1173C211.62 52.5264 212.909 55.7556 212.878 59.1071C212.847 62.4587 211.498 65.6634 209.124 68.0287C206.749 70.3941 203.539 71.7302 200.188 71.7483C201.248 71.7383 202.272 72.1375 203.046 72.863C203.82 73.5884 204.285 74.5843 204.343 75.6435C204.402 76.7027 204.05 77.7437 203.36 78.5501C202.671 79.3564 201.698 79.8661 200.642 79.973C206.128 79.847 211.346 77.5769 215.178 73.6494C219.011 69.7219 221.152 64.4495 221.143 58.9622C221.134 53.4749 218.976 48.2094 215.131 44.2942C211.286 40.379 206.061 38.1258 200.575 38.0173Z" fill="#008AE0" />
  <path d="M200.18 80C202.457 80 204.303 78.1541 204.303 75.8771C204.303 73.6001 202.457 71.7542 200.18 71.7542C197.903 71.7542 196.057 73.6001 196.057 75.8771C196.057 78.1541 197.903 80 200.18 80Z" fill="#7FCCE6" />
  <path d="M106.011 75.8771C106.011 74.7836 106.446 73.7349 107.219 72.9617C107.992 72.1885 109.041 71.7542 110.134 71.7542C107.61 71.7492 105.143 70.9964 103.046 69.5909C100.949 68.1854 99.3149 66.1901 98.3507 63.8569C97.3865 61.5236 97.1351 58.9571 97.6282 56.4811C98.1214 54.0051 99.3369 51.7307 101.122 49.945C101.888 49.1673 102.314 48.117 102.306 47.0251C102.298 45.9332 101.857 44.8892 101.079 44.1228C100.301 43.3563 99.2511 42.9302 98.1593 42.9382C97.0674 42.9461 96.0234 43.3875 95.2569 44.1652C92.3597 47.0771 90.3802 50.7748 89.5633 54.8004C88.7464 58.8261 89.128 63.0029 90.661 66.8138C92.194 70.6248 94.811 73.9024 98.188 76.2411C101.565 78.5797 105.554 79.8766 109.66 79.9711H109.68C108.672 79.8593 107.74 79.3799 107.064 78.6247C106.387 77.8694 106.012 76.8912 106.011 75.8771Z" fill="#00B6AB" />
  <path d="M110.134 46.2459C112.411 46.2459 114.257 44.4 114.257 42.1229C114.257 39.8459 112.411 38 110.134 38C107.857 38 106.011 39.8459 106.011 42.1229C106.011 44.4 107.857 46.2459 110.134 46.2459Z" fill="#7FD3DE" />
  <path d="M110.529 38.0173C111.561 38.1179 112.517 38.6037 113.207 39.3778C113.896 40.152 114.269 41.1577 114.25 42.1943C114.231 43.2309 113.822 44.2223 113.104 44.9707C112.387 45.7191 111.414 46.1696 110.379 46.2324C113.73 46.3127 116.914 47.7082 119.244 50.1173C121.575 52.5264 122.863 55.7556 122.832 59.1071C122.801 62.4587 121.453 65.6634 119.078 68.0287C116.703 70.3941 113.493 71.7302 110.142 71.7483C111.194 71.751 112.205 72.1554 112.968 72.879C113.731 73.6026 114.189 74.5905 114.248 75.6406C114.307 76.6908 113.962 77.7237 113.284 78.528C112.607 79.3323 111.647 79.8472 110.602 79.9672C116.067 79.8099 121.254 77.5261 125.06 73.602C128.866 69.6779 130.99 64.4233 130.981 58.9567C130.971 53.49 128.829 48.2429 125.009 44.3321C121.189 40.4213 115.994 38.1556 110.529 38.0173Z" fill="#00A7BD" />
  <path d="M110.134 80C112.411 80 114.257 78.1541 114.257 75.8771C114.257 73.6001 112.411 71.7542 110.134 71.7542C107.857 71.7542 106.011 73.6001 106.011 75.8771C106.011 78.1541 107.857 80 110.134 80Z" fill="#7FDAD5" />
</svg>